<svg aria-hidden="true" style="position: absolute; width: 0; height: 0; overflow: hidden;" version="1.1" xmlns="http://www.w3.org/2000/svg" xmlns:xlink="http://www.w3.org/1999/xlink" >
<defs>

<symbol id="logout-icon" viewBox="0 0 24 24" width="24" height="24">
<mask id="mask0_96_1686" style="mask-type:alpha" maskUnits="userSpaceOnUse" x="0" y="0" width="24" height="24">
<rect width="24" height="24"/>
</mask>
<g mask="url(#mask0_96_1686)">
<path d="M5.3077 20.5C4.80257 20.5 4.375 20.325 4.025 19.975C3.675 19.625 3.5 19.1974 3.5 18.6923V5.3077C3.5 4.80257 3.675 4.375 4.025 4.025C4.375 3.675 4.80257 3.5 5.3077 3.5H12.0096V4.99998H5.3077C5.23077 4.99998 5.16024 5.03203 5.09612 5.09613C5.03202 5.16024 4.99997 5.23077 4.99997 5.3077V18.6923C4.99997 18.7692 5.03202 18.8397 5.09612 18.9038C5.16024 18.9679 5.23077 19 5.3077 19H12.0096V20.5H5.3077ZM16.2308 16.2692L15.1923 15.1846L17.6269 12.75H9.09613V11.25H17.6269L15.1923 8.81538L16.2308 7.7308L20.5 12L16.2308 16.2692Z" />
</g></symbol>

<symbol id="user-icon" viewBox="0 0 24 24" width="24" height="24">
<mask id="mask0_96_1692" style="mask-type:alpha" maskUnits="userSpaceOnUse" x="0" y="0" width="24" height="24">
<rect width="24" height="24"/>
</mask>
<g mask="url(#mask0_96_1692)">
<path d="M6.02308 17.2923C6.87308 16.6615 7.79903 16.1635 8.80095 15.7981C9.80287 15.4327 10.8692 15.25 12 15.25C13.1307 15.25 14.1971 15.4327 15.199 15.7981C16.2009 16.1635 17.1269 16.6615 17.9769 17.2923C18.5987 16.609 19.0913 15.8179 19.4548 14.9192C19.8182 14.0205 20 13.0474 20 12C20 9.78331 19.2208 7.89581 17.6625 6.33748C16.1041 4.77914 14.2166 3.99998 12 3.99998C9.78331 3.99998 7.89581 4.77914 6.33748 6.33748C4.77914 7.89581 3.99998 9.78331 3.99998 12C3.99998 13.0474 4.18171 14.0205 4.54518 14.9192C4.90864 15.8179 5.40128 16.609 6.02308 17.2923ZM12.0003 12.75C11.0873 12.75 10.3173 12.4366 9.69038 11.8099C9.06346 11.1831 8.75 10.4133 8.75 9.50028C8.75 8.58726 9.06336 7.81729 9.69008 7.19038C10.3168 6.56346 11.0867 6.25 11.9997 6.25C12.9127 6.25 13.6827 6.56336 14.3096 7.19008C14.9365 7.81681 15.25 8.58668 15.25 9.49968C15.25 10.4127 14.9366 11.1827 14.3099 11.8096C13.6831 12.4365 12.9133 12.75 12.0003 12.75ZM12 21.5C10.6807 21.5 9.44325 21.2519 8.2875 20.7557C7.13173 20.2596 6.12628 19.5839 5.27115 18.7288C4.41603 17.8737 3.7404 16.8682 3.24425 15.7125C2.74808 14.5567 2.5 13.3192 2.5 12C2.5 10.6807 2.74808 9.44325 3.24425 8.2875C3.7404 7.13173 4.41603 6.12628 5.27115 5.27115C6.12628 4.41603 7.13173 3.7404 8.2875 3.24425C9.44325 2.74808 10.6807 2.5 12 2.5C13.3192 2.5 14.5567 2.74808 15.7125 3.24425C16.8682 3.7404 17.8737 4.41603 18.7288 5.27115C19.5839 6.12628 20.2596 7.13173 20.7557 8.2875C21.2519 9.44325 21.5 10.6807 21.5 12C21.5 13.3192 21.2519 14.5567 20.7557 15.7125C20.2596 16.8682 19.5839 17.8737 18.7288 18.7288C17.8737 19.5839 16.8682 20.2596 15.7125 20.7557C14.5567 21.2519 13.3192 21.5 12 21.5ZM12 20C12.9025 20 13.7727 19.8548 14.6105 19.5644C15.4484 19.274 16.1923 18.8679 16.8423 18.3461C16.1923 17.8436 15.458 17.4519 14.6394 17.1711C13.8208 16.8903 12.941 16.75 12 16.75C11.0589 16.75 10.1775 16.8887 9.35573 17.1663C8.53393 17.4439 7.80123 17.8371 7.15765 18.3461C7.80765 18.8679 8.55157 19.274 9.3894 19.5644C10.2272 19.8548 11.0974 20 12 20ZM12 11.25C12.4974 11.25 12.9134 11.0827 13.2481 10.7481C13.5827 10.4134 13.75 9.99741 13.75 9.49998C13.75 9.00254 13.5827 8.58651 13.2481 8.25188C12.9134 7.91726 12.4974 7.74995 12 7.74995C11.5025 7.74995 11.0865 7.91726 10.7519 8.25188C10.4173 8.58651 10.25 9.00254 10.25 9.49998C10.25 9.99741 10.4173 10.4134 10.7519 10.7481C11.0865 11.0827 11.5025 11.25 12 11.25Z" />
</g>
</symbol>

<symbol id="star-icon" viewBox="0 0 24 24" width="24" height="24"  xmlns="http://www.w3.org/2000/svg">
<mask id="mask0_96_1672" style="mask-type:alpha" maskUnits="userSpaceOnUse" x="0" y="0" width="24" height="24">
<rect width="24" height="24"/>
</mask>
<g mask="url(#mask0_96_1672)">
<path d="M8.84994 17.825L11.9999 15.925L15.1499 17.85L14.3249 14.25L17.0999 11.85L13.4499 11.525L11.9999 8.12498L10.5499 11.5L6.89994 11.825L9.67494 14.25L8.84994 17.825ZM6.57499 20.9614L8.00767 14.7923L3.22119 10.6442L9.53652 10.0962L11.9999 4.27893L14.4634 10.0962L20.7787 10.6442L15.9922 14.7923L17.4249 20.9614L11.9999 17.6884L6.57499 20.9614Z" />
</g>
</symbol>

<symbol id="back-arrow-icon" viewBox="0 0 28 34" width="24" height="24">
<mask id="mask0_69_249" style="mask-type:alpha" maskUnits="userSpaceOnUse" x="0" y="0" width="24" height="24">
<rect width="24" height="24"/>
</mask>
<g mask="url(#mask0_69_249)">
<path d="M16 21.6538L6.34619 12L16 2.34619L17.4192 3.76539L9.18462 12L17.4192 20.2346L16 21.6538Z" />
</g>
</symbol>

<symbol id="forward-arrow-icon" viewBox="0 0 28 34" width="24" height="24"  xmlns="http://www.w3.org/2000/svg">
<mask id="mask0_69_253" style="mask-type:alpha" maskUnits="userSpaceOnUse" x="0" y="0" width="24" height="24">
<rect width="24" height="24"/>
</mask>
<g mask="url(#mask0_69_253)">
<path d="M8.01539 21.6538L6.59619 20.2346L14.8308 12L6.59619 3.76539L8.01539 2.34619L17.6692 12L8.01539 21.6538Z" />
</g>
</symbol>

<symbol id="expand-icon" width="24" height="24" viewBox="0 0 24 24" xmlns="http://www.w3.org/2000/svg">
<mask id="mask0_69_374" style="mask-type:alpha" maskUnits="userSpaceOnUse" x="0" y="0" width="24" height="24">
<rect width="24" height="24"/>
</mask>
<g mask="url(#mask0_69_374)">
<path d="M12 15.0384L6.34619 9.38464L7.40002 8.33081L12 12.9308L16.6 8.33081L17.6538 9.38464L12 15.0384Z" />
</g>
</symbol>

<symbol id="close-icon" width="24" height="24" viewBox="0 0 24 24" xmlns="http://www.w3.org/2000/svg">
<mask id="mask0_69_408" stylnexte="mask-type:alpha" maskUnits="userSpaceOnUse" x="0" y="0" width="24" height="24">
<rect width="24" height="24"/>
</mask>
<g mask="url(#mask0_69_408)">
<path d="M6.40002 18.6538L5.34619 17.6L10.9462 12L5.34619 6.40002L6.40002 5.34619L12 10.9462L17.6 5.34619L18.6538 6.40002L13.0538 12L18.6538 17.6L17.6 18.6538L12 13.0538L6.40002 18.6538Z" />
</g>
</symbol>

<symbol  id="bell-icon" width="40" height="40" viewBox="0 0 40 40" xmlns="http://www.w3.org/2000/svg">
<mask id="mask0_282_138" style="mask-type:alpha" maskUnits="userSpaceOnUse" x="8" y="8" width="24" height="24">
<rect x="8" y="8" width="24" height="24"/>
</mask>
<g mask="url(#mask0_282_138)">
<path d="M12.5 26.8846V25.3846H14.3077V17.9231C14.3077 16.5782 14.7228 15.3891 15.5529 14.3558C16.383 13.3224 17.4487 12.6615 18.75 12.3731V11.75C18.75 11.4028 18.8714 11.1077 19.1143 10.8646C19.3571 10.6215 19.6519 10.5 19.9988 10.5C20.3457 10.5 20.641 10.6215 20.8846 10.8646C21.1282 11.1077 21.25 11.4028 21.25 11.75V12.3731C22.5512 12.6615 23.6169 13.3224 24.4471 14.3558C25.2772 15.3891 25.6922 16.5782 25.6922 17.9231V25.3846H27.5V26.8846H12.5ZM19.9983 29.6923C19.5007 29.6923 19.0753 29.5153 18.7221 29.1613C18.3689 28.8073 18.1923 28.3817 18.1923 27.8846H21.8077C21.8077 28.3833 21.6305 28.8093 21.2761 29.1625C20.9218 29.5157 20.4959 29.6923 19.9983 29.6923Z" />
</g>
<rect x="20" width="20" height="20" rx="10" fill="#C01A20"/>
<path d="M31 5.43945V14H29.5879V7.11523L27.4961 7.82422V6.6582L30.8301 5.43945H31Z" />
</symbol>

<symbol  id="home-icon" width="24" height="24" viewBox="0 0 24 24" xmlns="http://www.w3.org/2000/svg">
<mask id="mask0_69_383" style="mask-type:alpha" maskUnits="userSpaceOnUse" x="0" y="0" width="24" height="24">
<rect width="24" height="24"/>
</mask>
<g mask="url(#mask0_69_383)">
<path d="M3.51953 21.4804V8.75976L12 2.39233L20.4804 8.75504V21.4804H14.113V13.8869H9.88693V21.4804H3.51953Z" />
</g>
</symbol>

<symbol  id="headphone-icon" width="24" height="24" viewBox="0 0 24 24" xmlns="http://www.w3.org/2000/svg">
<mask id="mask0_69_389" style="mask-type:alpha" maskUnits="userSpaceOnUse" x="0" y="0" width="24" height="24">
<rect width="24" height="24"/>
</mask>
<g mask="url(#mask0_69_389)">
<path d="M9.39566 21.4381H5.16956C4.43114 21.4381 3.80486 21.181 3.29073 20.6668C2.7766 20.1527 2.51953 19.5264 2.51953 18.788V12C2.51953 10.6935 2.76881 9.46375 3.26736 8.31083C3.76591 7.15793 4.4429 6.15377 5.29833 5.29833C6.15376 4.4429 7.15793 3.76591 8.31083 3.26736C9.46375 2.76881 10.6935 2.51953 12 2.51953C13.3065 2.51953 14.5362 2.76881 15.6891 3.26736C16.842 3.76591 17.8462 4.4429 18.7016 5.29833C19.5571 6.15377 20.2341 7.15793 20.7326 8.31083C21.2312 9.46375 21.4804 10.6935 21.4804 12V18.788C21.4804 19.5264 21.2234 20.1527 20.7092 20.6668C20.1951 21.181 19.5688 21.4381 18.8304 21.4381H14.6043V12.5619H18.8304V12C18.8304 10.0971 18.1677 8.48296 16.8424 7.15761C15.517 5.83224 13.9029 5.16956 12 5.16956C10.0971 5.16956 8.48296 5.83224 7.15761 7.15761C5.83224 8.48296 5.16956 10.0971 5.16956 12V12.5619H9.39566V21.4381Z" />
</g>
</symbol>

<symbol  id="search-icon" width="24" height="24" viewBox="0 0 24 24" xmlns="http://www.w3.org/2000/svg">
<mask id="mask0_69_448" style="mask-type:alpha" maskUnits="userSpaceOnUse" x="0" y="0" width="24" height="24">
<rect width="24" height="24"/>
</mask>
<g mask="url(#mask0_69_448)">
<path d="M19.5422 20.5769L13.2615 14.2961C12.7615 14.7089 12.1865 15.032 11.5365 15.2653C10.8865 15.4987 10.214 15.6153 9.51916 15.6153C7.80999 15.6153 6.36348 15.0236 5.17961 13.84C3.99574 12.6564 3.40381 11.2103 3.40381 9.50157C3.40381 7.79284 3.99559 6.34616 5.17916 5.16154C6.36273 3.97694 7.80888 3.38464 9.51761 3.38464C11.2263 3.38464 12.673 3.97658 13.8576 5.16044C15.0422 6.34431 15.6345 7.79083 15.6345 9.49999C15.6345 10.2141 15.5147 10.8961 15.2749 11.5461C15.0352 12.1961 14.7153 12.7615 14.3153 13.2423L20.5961 19.5231L19.5422 20.5769ZM9.51916 14.1154C10.8076 14.1154 11.899 13.6683 12.7932 12.774C13.6874 11.8798 14.1346 10.7885 14.1346 9.49999C14.1346 8.21153 13.6874 7.12018 12.7932 6.22594C11.899 5.33171 10.8076 4.88459 9.51916 4.88459C8.23069 4.88459 7.13934 5.33171 6.24511 6.22594C5.35089 7.12018 4.90378 8.21153 4.90378 9.49999C4.90378 10.7885 5.35089 11.8798 6.24511 12.774C7.13934 13.6683 8.23069 14.1154 9.51916 14.1154Z" />
</g>
</symbol>

<symbol  id="podcasts-icon" width="24" height="24" viewBox="0 0 24 24" xmlns="http://www.w3.org/2000/svg">
<mask id="mask0_69_395" style="mask-type:alpha" maskUnits="userSpaceOnUse" x="0" y="0" width="24" height="24">
<rect width="24" height="24"/>
</mask>
<g mask="url(#mask0_69_395)">
<path d="M10.7882 22.862V14.1065C10.4317 13.8949 10.1382 13.608 9.90778 13.2457C9.67733 12.8833 9.56211 12.4684 9.56211 12.0009C9.56211 11.3302 9.80105 10.756 10.2789 10.2784C10.7568 9.80075 11.3313 9.56192 12.0023 9.56192C12.6734 9.56192 13.2471 9.80075 13.7236 10.2784C14.2 10.756 14.4383 11.3302 14.4383 12.0009C14.4383 12.4684 14.323 12.8852 14.0926 13.2511C13.8621 13.6171 13.5687 13.9022 13.2122 14.1065V22.862H10.7882ZM4.49253 19.8577C3.45775 18.8656 2.64 17.6958 2.03928 16.3482C1.43855 15.0006 1.13818 13.549 1.13818 11.9933C1.13818 10.492 1.42188 9.08115 1.98928 7.76085C2.55667 6.44055 3.3304 5.29037 4.31048 4.3103C5.29055 3.33022 6.44183 2.55648 7.76431 1.9891C9.08678 1.4217 10.4998 1.138 12.0034 1.138C13.5071 1.138 14.919 1.4217 16.2393 1.9891C17.5596 2.55648 18.7098 3.33022 19.6899 4.3103C20.67 5.29037 21.4437 6.44113 22.0111 7.7626C22.5785 9.08407 22.8622 10.496 22.8622 11.9985C22.8622 13.5553 22.5618 15.0082 21.9611 16.3571C21.3604 17.706 20.5426 18.8729 19.5078 19.8577L17.7969 18.1467C18.6069 17.3762 19.2496 16.4613 19.7251 15.4018C20.2005 14.3424 20.4383 13.2085 20.4383 12.0002C20.4383 9.65369 19.6185 7.66068 17.979 6.02117C16.3395 4.38167 14.3466 3.56192 12.0002 3.56192C9.6538 3.56192 7.66086 4.38167 6.02136 6.02117C4.38186 7.66068 3.56211 9.65306 3.56211 11.9983C3.56211 13.206 3.79844 14.3374 4.27111 15.3925C4.74378 16.4477 5.39151 17.3621 6.21431 18.1359L4.49253 19.8577ZM7.47298 16.8772C6.8237 16.2707 6.30758 15.5495 5.92461 14.7138C5.54164 13.8781 5.35016 12.9735 5.35016 12C5.35016 10.1528 5.99653 8.58262 7.28926 7.28955C8.58199 5.9965 10.1518 5.34998 11.9985 5.34998C13.8453 5.34998 15.4156 5.99632 16.7094 7.28902C18.0033 8.58172 18.6502 10.1514 18.6502 11.9982C18.6502 12.9769 18.4587 13.885 18.0758 14.7223C17.6928 15.5596 17.1767 16.2779 16.5274 16.8772L14.8056 15.1555C15.2411 14.7627 15.5844 14.2936 15.8355 13.7483C16.0866 13.203 16.2122 12.6224 16.2122 12.0068C16.2122 10.8457 15.7999 9.85236 14.9754 9.02663C14.151 8.20089 13.1598 7.78802 12.0021 7.78802C10.8443 7.78802 9.85254 8.20003 9.02681 9.02402C8.20108 9.84803 7.78821 10.8386 7.78821 11.9957C7.78821 12.6268 7.91376 13.2131 8.16486 13.7544C8.41594 14.2957 8.75923 14.7627 9.19473 15.1555L7.47298 16.8772Z" />
</g>
</symbol>

<symbol  id="play-icon"  width="40" height="40" viewBox="0 0 40 40" xmlns="http://www.w3.org/2000/svg">
<mask id="mask0_69_185" style="mask-type:alpha" maskUnits="userSpaceOnUse" x="0" y="0" width="40" height="40">
<rect width="40" height="40"/>
</mask>
<g mask="url(#mask0_69_185)">
<path d="M13.3335 31.5833V8.25L31.6668 19.9167L13.3335 31.5833Z" />
</g>
</symbol>

<symbol  id="play-previous-icon"  width="40" height="40" viewBox="0 0 40 40" xmlns="http://www.w3.org/2000/svg">
<mask id="mask0_69_486" style="mask-type:alpha" maskUnits="userSpaceOnUse" x="0" y="0" width="40" height="40">
<rect width="40" height="40"/>
</mask>
<g mask="url(#mask0_69_486)">
<path d="M9.1665 30V10H11.9443V30H9.1665ZM30.8332 30L16.2221 20L30.8332 10V30Z" />
</g>
</symbol>


<symbol  id="play-next-icon"  width="40" height="40" viewBox="0 0 40 40" xmlns="http://www.w3.org/2000/svg">
<mask id="mask0_69_482" style="mask-type:alpha" maskUnits="userSpaceOnUse" x="0" y="0" width="40" height="40">
<rect width="40" height="40"/>
</mask>
<g mask="url(#mask0_69_482)">
<path d="M28.0554 30V10H30.8332V30H28.0554ZM9.1665 30V10L23.7776 20L9.1665 30Z" />
</g>
</symbol>

<symbol  id="expand-more-icon"  width="40" height="40" viewBox="0 0 40 40" xmlns="http://www.w3.org/2000/svg">
<mask id="mask0_69_508" style="mask-type:alpha" maskUnits="userSpaceOnUse" x="0" y="0" width="40" height="40">
<rect width="40" height="40"/>
</mask>
<g mask="url(#mask0_69_508)">
<path d="M20 25.625L10 15.625L11.9722 13.6528L20 21.7084L28.0278 13.6806L30 15.6528L20 25.625Z" />
</g>
</symbol>

<symbol  id="pause-icon"  width="40" height="40" viewBox="0 0 40 40" xmlns="http://www.w3.org/2000/svg">
<mask id="mask0_96_1663" style="mask-type:alpha" maskUnits="userSpaceOnUse" x="0" y="0" width="40" height="40">
<rect width="40" height="40"/>
</mask>
<g mask="url(#mask0_96_1663)">
<path d="M23.1944 31.6666V8.33331H30.2778V31.6666H23.1944ZM9.72217 31.6666V8.33331H16.8055V31.6666H9.72217Z" />
</g>
</symbol>

</defs>
</svg>